<svg xmlns="http://www.w3.org/2000/svg" xmlns:xlink="http://www.w3.org/1999/xlink" width="40" zoomAndPan="magnify" viewBox="0 0 30 30.000001" height="40" preserveAspectRatio="xMidYMid meet" version="1.0"><defs><clipPath id="856ffff2af"><path d="M 0.484375 0 L 29.515625 0 L 29.515625 29.03125 L 0.484375 29.03125 Z M 0.484375 0 " clip-rule="nonzero"/></clipPath><clipPath id="8d1b5dd8e9"><path d="M 0.484375 0 L 7 0 L 7 7 L 0.484375 7 Z M 0.484375 0 " clip-rule="nonzero"/></clipPath><clipPath id="6f6762b008"><path d="M 22 21 L 29.515625 21 L 29.515625 29.03125 L 22 29.03125 Z M 22 21 " clip-rule="nonzero"/></clipPath><clipPath id="3a92b8d5b6"><path d="M 0.484375 24 L 7 24 L 7 29.03125 L 0.484375 29.03125 Z M 0.484375 24 " clip-rule="nonzero"/></clipPath><clipPath id="7b52b2c61a"><path d="M 0.484375 6 L 17 6 L 17 24 L 0.484375 24 Z M 0.484375 6 " clip-rule="nonzero"/></clipPath><clipPath id="a36eab903c"><path d="M 16 0 L 29.515625 0 L 29.515625 13 L 16 13 Z M 16 0 " clip-rule="nonzero"/></clipPath><clipPath id="087a07946f"><path d="M 20 10 L 29.515625 10 L 29.515625 21 L 20 21 Z M 20 10 " clip-rule="nonzero"/></clipPath></defs><g clip-path="url(#856ffff2af)"><path fill="#ffffff" d="M 0.484375 0 L 29.515625 0 L 29.515625 36.289062 L 0.484375 36.289062 Z M 0.484375 0 " fill-opacity="1" fill-rule="nonzero"/><path fill="#ffffff" d="M 0.484375 0 L 29.515625 0 L 29.515625 29.03125 L 0.484375 29.03125 Z M 0.484375 0 " fill-opacity="1" fill-rule="nonzero"/><path fill="#000000" d="M 0.484375 0 L 29.515625 0 L 29.515625 29.03125 L 0.484375 29.03125 Z M 0.484375 0 " fill-opacity="1" fill-rule="nonzero"/></g><path fill="#ffffff" d="M 4.714844 10.253906 C 3.691406 11.136719 2.972656 12.320312 2.691406 13.648438 C 2.644531 13.902344 2.808594 14.136719 3.0625 14.203125 C 3.320312 14.25 3.550781 14.089844 3.621094 13.832031 C 3.855469 12.71875 4.460938 11.695312 5.34375 10.949219 C 5.527344 10.789062 5.574219 10.484375 5.390625 10.300781 C 5.203125 10.113281 4.925781 10.089844 4.714844 10.253906 Z M 4.714844 10.253906 " fill-opacity="1" fill-rule="nonzero"/><path fill="#ffffff" d="M 7.039062 9.042969 C 6.832031 9.089844 6.644531 9.160156 6.433594 9.230469 C 6.203125 9.324219 6.085938 9.601562 6.179688 9.835938 C 6.273438 10.066406 6.550781 10.183594 6.785156 10.089844 C 6.945312 10.019531 7.109375 9.972656 7.296875 9.925781 C 7.550781 9.855469 7.691406 9.601562 7.621094 9.347656 C 7.550781 9.113281 7.296875 8.972656 7.039062 9.042969 Z M 7.039062 9.042969 " fill-opacity="1" fill-rule="nonzero"/><g clip-path="url(#8d1b5dd8e9)"><path fill="#ffffff" d="M 3.738281 6.507812 C 5.527344 6.507812 6.992188 5.046875 6.992188 3.253906 C 6.992188 1.464844 5.527344 0 3.738281 0 C 1.949219 0 0.484375 1.464844 0.484375 3.253906 C 0.484375 5.046875 1.949219 6.507812 3.738281 6.507812 Z M 3.738281 0.929688 C 5.015625 0.929688 6.0625 1.976562 6.0625 3.253906 C 6.0625 4.535156 5.015625 5.578125 3.738281 5.578125 C 2.460938 5.578125 1.414062 4.535156 1.414062 3.253906 C 1.414062 1.976562 2.460938 0.929688 3.738281 0.929688 Z M 3.738281 0.929688 " fill-opacity="1" fill-rule="nonzero"/></g><path fill="#ffffff" d="M 2.808594 3.71875 C 3.0625 3.71875 3.273438 3.511719 3.273438 3.253906 C 3.273438 3 3.484375 2.789062 3.738281 2.789062 C 3.996094 2.789062 4.203125 2.582031 4.203125 2.324219 C 4.203125 2.070312 3.996094 1.859375 3.738281 1.859375 C 2.972656 1.859375 2.34375 2.488281 2.34375 3.253906 C 2.34375 3.511719 2.554688 3.71875 2.808594 3.71875 Z M 2.808594 3.71875 " fill-opacity="1" fill-rule="nonzero"/><g clip-path="url(#6f6762b008)"><path fill="#ffffff" d="M 26.289062 21.855469 C 24.105469 21.855469 22.335938 23.621094 22.335938 25.804688 C 22.335938 27.992188 24.105469 29.757812 26.289062 29.757812 C 28.476562 29.757812 30.242188 27.992188 30.242188 25.804688 C 30.242188 23.621094 28.476562 21.855469 26.289062 21.855469 Z M 26.289062 28.828125 C 24.617188 28.828125 23.265625 27.480469 23.265625 25.804688 C 23.265625 24.132812 24.617188 22.785156 26.289062 22.785156 C 27.964844 22.785156 29.3125 24.132812 29.3125 25.804688 C 29.3125 27.480469 27.964844 28.828125 26.289062 28.828125 Z M 26.289062 28.828125 " fill-opacity="1" fill-rule="nonzero"/></g><path fill="#ffffff" d="M 27.917969 25.339844 C 27.660156 25.339844 27.453125 25.550781 27.453125 25.804688 C 27.453125 26.457031 26.941406 26.96875 26.289062 26.96875 C 26.035156 26.96875 25.824219 27.175781 25.824219 27.433594 C 25.824219 27.6875 26.035156 27.898438 26.289062 27.898438 C 27.453125 27.898438 28.382812 26.96875 28.382812 25.804688 C 28.382812 25.550781 28.171875 25.339844 27.917969 25.339844 Z M 27.917969 25.339844 " fill-opacity="1" fill-rule="nonzero"/><g clip-path="url(#3a92b8d5b6)"><path fill="#ffffff" d="M 3.273438 24.179688 C 1.738281 24.179688 0.484375 25.433594 0.484375 26.96875 C 0.484375 28.503906 1.738281 29.757812 3.273438 29.757812 C 4.808594 29.757812 6.0625 28.503906 6.0625 26.96875 C 6.0625 25.433594 4.808594 24.179688 3.273438 24.179688 Z M 3.273438 28.828125 C 2.25 28.828125 1.414062 27.992188 1.414062 26.96875 C 1.414062 25.945312 2.25 25.109375 3.273438 25.109375 C 4.296875 25.109375 5.132812 25.945312 5.132812 26.96875 C 5.132812 27.992188 4.296875 28.828125 3.273438 28.828125 Z M 3.273438 28.828125 " fill-opacity="1" fill-rule="nonzero"/></g><g clip-path="url(#7b52b2c61a)"><path fill="#ffffff" d="M 8.621094 22.085938 C 4.644531 22.085938 1.414062 18.855469 1.414062 14.878906 C 1.414062 10.902344 4.644531 7.671875 8.621094 7.671875 C 12.597656 7.671875 15.828125 10.902344 15.828125 14.878906 C 15.828125 15.113281 15.804688 15.34375 15.804688 15.578125 C 15.804688 15.578125 15.828125 15.578125 15.828125 15.578125 C 16.128906 15.578125 16.433594 15.601562 16.710938 15.644531 C 16.734375 15.390625 16.757812 15.136719 16.757812 14.878906 C 16.757812 10.390625 13.109375 6.742188 8.621094 6.742188 C 4.132812 6.742188 0.484375 10.390625 0.484375 14.878906 C 0.484375 19.367188 4.132812 23.015625 8.621094 23.015625 C 9.363281 23.015625 10.109375 22.898438 10.78125 22.714844 C 10.691406 22.433594 10.597656 22.132812 10.550781 21.808594 C 9.945312 21.992188 9.296875 22.085938 8.621094 22.085938 Z M 8.621094 22.085938 " fill-opacity="1" fill-rule="nonzero"/></g><path fill="#ffffff" d="M 15.828125 16.507812 C 13.386719 16.507812 11.410156 18.484375 11.410156 20.921875 C 11.410156 23.363281 13.386719 25.339844 15.828125 25.339844 C 18.269531 25.339844 20.246094 23.363281 20.246094 20.921875 C 20.246094 18.484375 18.269531 16.507812 15.828125 16.507812 Z M 15.828125 24.410156 C 13.898438 24.410156 12.339844 22.851562 12.339844 20.921875 C 12.339844 18.992188 13.898438 17.4375 15.828125 17.4375 C 17.757812 17.4375 19.316406 18.992188 19.316406 20.921875 C 19.316406 22.851562 17.757812 24.410156 15.828125 24.410156 Z M 15.828125 24.410156 " fill-opacity="1" fill-rule="nonzero"/><path fill="#ffffff" d="M 15.828125 18.367188 C 14.410156 18.367188 13.269531 19.503906 13.269531 20.921875 C 13.269531 21.179688 13.480469 21.386719 13.734375 21.386719 C 13.992188 21.386719 14.199219 21.179688 14.199219 20.921875 C 14.199219 20.015625 14.921875 19.296875 15.828125 19.296875 C 16.082031 19.296875 16.292969 19.085938 16.292969 18.832031 C 16.292969 18.574219 16.082031 18.367188 15.828125 18.367188 Z M 15.828125 18.367188 " fill-opacity="1" fill-rule="nonzero"/><path fill="#ffffff" d="M 27.21875 6.742188 C 27.21875 6.996094 27.429688 7.207031 27.683594 7.207031 C 27.941406 7.207031 28.148438 6.996094 28.148438 6.742188 C 28.148438 6.371094 28.101562 6 28.011719 5.648438 C 27.941406 5.394531 27.707031 5.253906 27.453125 5.300781 C 27.195312 5.371094 27.058594 5.601562 27.101562 5.859375 C 27.171875 6.160156 27.21875 6.441406 27.21875 6.742188 Z M 27.21875 6.742188 " fill-opacity="1" fill-rule="nonzero"/><path fill="#ffffff" d="M 27.101562 3.8125 C 26.21875 2.71875 24.894531 2.09375 23.5 2.09375 C 23.242188 2.09375 23.035156 2.300781 23.035156 2.558594 C 23.035156 2.8125 23.242188 3.023438 23.5 3.023438 C 24.617188 3.023438 25.683594 3.535156 26.382812 4.394531 C 26.546875 4.578125 26.847656 4.625 27.035156 4.464844 C 27.242188 4.300781 27.265625 4 27.101562 3.8125 Z M 27.101562 3.8125 " fill-opacity="1" fill-rule="nonzero"/><g clip-path="url(#a36eab903c)"><path fill="#ffffff" d="M 19.851562 12.414062 C 20.011719 12.136719 20.175781 11.878906 20.359375 11.648438 C 18.757812 10.601562 17.6875 8.789062 17.6875 6.742188 C 17.6875 3.535156 20.292969 0.929688 23.5 0.929688 C 26.707031 0.929688 29.3125 3.535156 29.3125 6.742188 C 29.3125 8.019531 28.894531 9.183594 28.195312 10.136719 C 28.453125 10.300781 28.707031 10.460938 28.964844 10.671875 C 29.777344 9.578125 30.242188 8.207031 30.242188 6.742188 C 30.242188 3.023438 27.21875 0 23.5 0 C 19.78125 0 16.757812 3.023438 16.757812 6.742188 C 16.757812 9.113281 17.988281 11.207031 19.851562 12.414062 Z M 19.851562 12.414062 " fill-opacity="1" fill-rule="nonzero"/></g><g clip-path="url(#087a07946f)"><path fill="#ffffff" d="M 25.128906 10.230469 C 22.3125 10.230469 20.011719 12.53125 20.011719 15.34375 C 20.011719 18.15625 22.3125 20.457031 25.128906 20.457031 C 27.941406 20.457031 30.242188 18.15625 30.242188 15.34375 C 30.242188 12.53125 27.941406 10.230469 25.128906 10.230469 Z M 25.128906 19.527344 C 22.824219 19.527344 20.941406 17.644531 20.941406 15.34375 C 20.941406 13.042969 22.824219 11.160156 25.128906 11.160156 C 27.429688 11.160156 29.3125 13.042969 29.3125 15.34375 C 29.3125 17.644531 27.429688 19.527344 25.128906 19.527344 Z M 25.128906 19.527344 " fill-opacity="1" fill-rule="nonzero"/></g><path fill="#ffffff" d="M 25.128906 12.320312 C 24.871094 12.320312 24.664062 12.53125 24.664062 12.785156 C 24.664062 13.042969 24.871094 13.25 25.128906 13.25 C 26.289062 13.25 27.21875 14.179688 27.21875 15.34375 C 27.21875 15.601562 27.429688 15.808594 27.683594 15.808594 C 27.941406 15.808594 28.148438 15.601562 28.148438 15.34375 C 28.148438 13.671875 26.800781 12.320312 25.128906 12.320312 Z M 25.128906 12.320312 " fill-opacity="1" fill-rule="nonzero"/></svg>